<svg width="175" height="71" viewBox="0 0 175 71" fill="none" xmlns="http://www.w3.org/2000/svg">
<path d="M61.6554 24.6768H72.962V27.5527H58.4644V1H61.6554V24.6768Z" fill="#FE730F" stroke="#FE730F" stroke-width="1.75" stroke-miterlimit="10"/>
<path d="M77.0985 27.5527V1H80.2896V27.5527H77.0985Z" fill="#FE730F" stroke="#FE730F" stroke-width="1.75" stroke-miterlimit="10"/>
<path d="M101.406 1V3.7971H94.2357V27.5527H91.0447V3.7971H83.8746V1H101.406Z" fill="#FE730F" stroke="#FE730F" stroke-width="1.75" stroke-miterlimit="10"/>
<path d="M120.001 1V3.7971H112.831V27.5527H109.64V3.7971H102.469V1H120.001Z" fill="#FE730F" stroke="#FE730F" stroke-width="1.75" stroke-miterlimit="10"/>
<path d="M126.58 24.6768H137.886V27.5527H123.389V1H126.58V24.6768Z" fill="#FE730F" stroke="#FE730F" stroke-width="1.75" stroke-miterlimit="10"/>
<path d="M144.977 24.7556H156.599V27.5527H141.786V1H156.402V3.7971H144.977V12.8975H155.063V15.6946H144.977V24.7556Z" fill="#FE730F" stroke="#FE730F" stroke-width="1.75" stroke-miterlimit="10"/>
<path d="M65.792 59.0735H61.6554V69.5527H58.4644V43H65.1222C68.1951 43 70.526 43.7223 72.115 45.1668C73.7039 46.6113 74.4984 48.6073 74.4984 51.1549C74.4459 52.9934 73.96 54.5561 73.0408 55.843C72.1215 57.1299 70.8215 58.036 69.1406 58.5613L76.1137 69.5527H72.2923L65.792 59.0735ZM61.6554 45.7577V56.3552H65.6738C67.486 56.3552 68.8714 55.8627 69.83 54.8778C70.7887 53.8929 71.268 52.6257 71.268 51.0761C71.268 47.5305 69.2851 45.7577 65.3192 45.7577H61.6554Z" fill="#FE730F" stroke="#FE730F" stroke-width="1.75" stroke-miterlimit="10"/>
<path d="M79.8956 69.5527V43H83.0867V69.5527H79.8956Z" fill="#FE730F" stroke="#FE730F" stroke-width="1.75" stroke-miterlimit="10"/>
<path d="M88.9961 43H96.8752C100.789 43 103.999 44.2147 106.508 46.6441C109.016 49.0735 110.27 52.212 110.27 56.0597C110.27 59.9073 109.108 63.1181 106.783 65.692C104.459 68.2658 101.209 69.5527 97.0328 69.5527H88.9961L88.9961 43ZM92.2266 66.7556H96.9934C100.276 66.7556 102.758 65.7379 104.439 63.7025C106.12 61.667 106.961 59.1654 106.961 56.1976C106.961 53.2298 106.022 50.761 104.144 48.7912C102.266 46.8214 99.8299 45.8365 96.8359 45.8365H92.2266V66.7556Z" fill="#FE730F" stroke="#FE730F" stroke-width="1.75" stroke-miterlimit="10"/>
<path d="M114.643 43H122.522C126.435 43 129.646 44.2147 132.154 46.6441C134.662 49.0735 135.916 52.212 135.916 56.0597C135.916 59.9073 134.754 63.1181 132.43 65.692C130.106 68.2658 126.855 69.5527 122.679 69.5527H114.643L114.643 43ZM117.873 66.7556H122.64C125.923 66.7556 128.405 65.7379 130.086 63.7025C131.767 61.667 132.607 59.1654 132.607 56.1976C132.607 53.2298 131.668 50.761 129.79 48.7912C127.913 46.8214 125.477 45.8365 122.482 45.8365H117.873V66.7556Z" fill="#FE730F" stroke="#FE730F" stroke-width="1.75" stroke-miterlimit="10"/>
<path d="M143.48 66.6768H154.787V69.5527H140.289V43H143.48V66.6768Z" fill="#FE730F" stroke="#FE730F" stroke-width="1.75" stroke-miterlimit="10"/>
<path d="M161.878 66.7556H173.5V69.5527H158.687V43H173.303V45.7971H161.878V54.8975H171.964V57.6946H161.878V66.7556Z" fill="#FE730F" stroke="#FE730F" stroke-width="1.75" stroke-miterlimit="10"/>
<path d="M9.70268 62.2347H38.7665V69.6272H1.5V1.3728H9.70268V62.2347Z" stroke="#FE730F" stroke-width="1.75" stroke-miterlimit="10" stroke-dasharray="3.5 1.31"/>
</svg>
