<svg width="120" height="53" viewBox="0 0 120 53" fill="none" xmlns="http://www.w3.org/2000/svg">
<path d="M8.70753 40.5951L7.05791 49.2523H5.21074L4.70696 46.0959C4.57855 45.2941 4.46989 44.401 4.37111 43.3658H4.35136C4.21307 44.401 4.09453 45.2738 3.93648 46.1061L3.36356 49.2523H1.5559L0.00506592 40.5951H1.83248L2.26711 43.9748C2.39553 44.9795 2.50418 46.0553 2.61284 47.0093H2.6326C2.75113 46.0147 2.92893 44.9998 3.08698 43.9545L3.63027 40.5951H5.28976L5.79354 44.0255C5.94171 45.0201 6.06024 45.9538 6.15902 46.9992H6.18865C6.28743 45.9538 6.40597 44.9795 6.54426 43.9646L6.98877 40.6053H8.70753V40.5951Z" fill="#050000"/>
<path d="M15.5134 49.0189C15.0097 49.2523 14.3478 49.3639 13.6959 49.3639C11.9673 49.3639 10.9893 48.1765 10.9893 46.2076C10.9893 44.401 11.908 42.8279 13.5477 42.8279C14.8615 42.8279 15.7801 43.8327 15.7801 45.9741C15.7801 46.2786 15.7703 46.5932 15.7307 46.8064H12.6291C12.6686 47.5574 13.2514 47.9025 13.9626 47.9025C14.4565 47.9025 14.8911 47.801 15.2862 47.6589L15.5134 49.0189ZM14.2194 45.4464C14.2194 44.8882 14.0614 44.1778 13.4687 44.1778C12.8859 44.1778 12.6587 44.9186 12.6291 45.4464H14.2194Z" fill="#050000"/>
<path d="M20.887 43.6196C21.1834 43.1527 21.6476 42.8279 22.2897 42.8279C23.5146 42.8279 24.2455 44.1575 24.2455 45.964C24.2455 48.2272 23.1886 49.3842 22.0329 49.3842C21.4995 49.3842 21.0056 49.1609 20.6598 48.4606H20.6401L20.5512 49.2523H19.0991C19.1189 48.755 19.1386 48.0242 19.1386 47.324V40.2399H20.8574V43.6196H20.887ZM20.8574 46.7455C20.8574 47.4559 21.2525 47.8111 21.618 47.8111C22.1909 47.8111 22.5169 47.192 22.5169 46.0756C22.5169 45.0912 22.2205 44.4112 21.618 44.4112C21.2328 44.4112 20.8574 44.807 20.8574 45.487V46.7455Z" fill="#050000"/>
<path d="M31.6836 42.4829C31.407 42.3306 30.9625 42.1277 30.3501 42.1277C29.6883 42.1277 29.3623 42.493 29.3623 42.9193C29.3623 43.3963 29.6784 43.6399 30.597 44.1169C31.8021 44.736 32.296 45.5885 32.296 46.6643C32.296 48.2475 31.249 49.3639 29.4216 49.3639C28.661 49.3639 27.9102 49.1406 27.5546 48.9174L27.851 47.2631C28.256 47.4965 28.8881 47.7096 29.4907 47.7096C30.2118 47.7096 30.5674 47.3544 30.5674 46.8368C30.5674 46.3091 30.2217 46.0147 29.4413 45.6189C28.2461 44.9897 27.6336 44.1372 27.6336 43.1121C27.6336 41.6405 28.6116 40.4937 30.36 40.4937C31.081 40.4937 31.6441 40.6763 31.9997 40.8793L31.6836 42.4829Z" fill="#050000"/>
<path d="M35.8916 41.7927L37.5906 41.2447V42.9497H38.7365V44.3706H37.5906V46.7455C37.5906 47.4863 37.798 47.7502 38.203 47.7502C38.4006 47.7502 38.5093 47.7401 38.6476 47.6893L38.6574 49.2117C38.4401 49.2929 38.0648 49.3538 37.6005 49.3538C35.9114 49.3538 35.8817 47.6995 35.8817 46.9789V44.3604H35.21V42.9396H35.8817V41.7927H35.8916Z" fill="#050000"/>
<path d="M46.8166 47.2225C46.8166 47.9938 46.8462 48.6941 46.866 49.2523H45.3843L45.3053 48.4708H45.2757C45.0386 48.8768 44.5447 49.3741 43.7446 49.3741C42.6284 49.3741 42.0061 48.5114 42.0061 46.6947V42.9396H43.7248V46.4105C43.7248 47.2631 43.9323 47.7502 44.4064 47.7502C44.762 47.7502 45.0979 47.4356 45.0979 46.7962V42.9294H46.8166V47.2225Z" fill="#050000"/>
<path d="M55.282 47.324C55.282 48.0141 55.3018 48.7448 55.3215 49.2523H53.8201L53.741 48.4302H53.7114C53.4151 49.029 52.852 49.3741 52.2692 49.3741C51.0048 49.3741 50.185 47.9836 50.185 46.1264C50.185 43.9849 51.2024 42.8178 52.3482 42.8178C52.931 42.8178 53.3558 43.0918 53.5435 43.4673H53.5731V40.2196H55.2919V47.324H55.282ZM53.5632 45.5276C53.5632 44.6548 53.1187 44.401 52.8224 44.401C52.2001 44.401 51.9136 45.1825 51.9136 46.1365C51.9136 47.2225 52.289 47.7908 52.8125 47.7908C53.1385 47.7908 53.5632 47.5574 53.5632 46.6947V45.5276Z" fill="#050000"/>
<path d="M63.6091 42.9497L62.404 47.4356C61.841 49.3741 61.3767 50.4397 60.784 51.1299C60.2309 51.7489 59.6085 51.9925 59.2529 52.0636L58.8282 50.3788C59.5394 50.2063 60.221 49.3944 60.221 49.0189C60.221 48.9478 60.2012 48.8666 60.1518 48.7347L58.3639 42.9497H60.2506L60.8927 46.0452C60.9717 46.4004 61.0507 46.8064 61.1001 47.1413H61.1297C61.189 46.8064 61.2483 46.4004 61.3075 46.0553L61.8311 42.9497H63.6091Z" fill="#050000"/>
<path d="M70.6619 42.4829C70.3854 42.3306 69.9409 42.1277 69.3284 42.1277C68.6666 42.1277 68.3406 42.493 68.3406 42.9193C68.3406 43.3963 68.6567 43.6399 69.5754 44.1169C70.7805 44.736 71.2744 45.5885 71.2744 46.6643C71.2744 48.2475 70.2273 49.3639 68.3999 49.3639C67.6393 49.3639 66.8886 49.1406 66.533 48.9174L66.8293 47.2631C67.2343 47.4965 67.8665 47.7096 68.469 47.7096C69.1901 47.7096 69.5457 47.3544 69.5457 46.8368C69.5457 46.3091 69.2 46.0147 68.4196 45.6189C67.2244 44.9897 66.612 44.1372 66.612 43.1121C66.612 41.6405 67.5899 40.4937 69.3383 40.4937C70.0594 40.4937 70.6224 40.6763 70.978 40.8793L70.6619 42.4829Z" fill="#050000"/>
<path d="M78.8508 47.7604C78.8508 48.3186 78.8705 48.8666 78.9397 49.2523H77.3987L77.2999 48.6433H77.2703C76.9344 49.1508 76.4208 49.3741 75.8577 49.3741C74.8601 49.3741 74.2081 48.5013 74.2081 47.4356C74.2081 45.7712 75.512 45.0506 77.132 45.0404C77.132 44.5634 76.9443 44.2082 76.2529 44.2082C75.7392 44.2082 75.2453 44.3909 74.8996 44.6345L74.5835 43.3557C74.9391 43.1324 75.6503 42.8178 76.5986 42.8178C78.4161 42.8178 78.8606 44.1372 78.8606 45.5377V47.7604H78.8508ZM77.1814 46.2786C76.4702 46.2786 75.8577 46.512 75.8577 47.2428C75.8577 47.7604 76.1343 47.9837 76.4307 47.9837C76.7863 47.9837 77.1715 47.6893 77.1715 47.1007V46.2786H77.1814Z" fill="#050000"/>
<path d="M84.0169 43.7414C84.3429 43.1629 84.8763 42.8178 85.5381 42.8178C86.7531 42.8178 87.5828 44.1575 87.5828 46.0452C87.5828 48.349 86.4568 49.3741 85.3801 49.3741C84.8269 49.3741 84.4021 49.0797 84.2046 48.7347H84.175V51.7591H82.4661V45.0303C82.4661 44.2488 82.4463 43.5485 82.4266 42.9497H83.9082L83.9972 43.7414H84.0169ZM84.1848 46.7252C84.1848 47.3646 84.5009 47.8314 84.9356 47.8314C85.5381 47.8314 85.8443 47.1007 85.8443 46.1162C85.8443 45.0607 85.5282 44.4112 84.9553 44.4112C84.5503 44.4112 84.1848 44.8273 84.1848 45.4971V46.7252Z" fill="#050000"/>
<path d="M92.5021 43.7414C92.828 43.1629 93.3614 42.8178 94.0233 42.8178C95.2383 42.8178 96.068 44.1575 96.068 46.0452C96.068 48.349 94.9419 49.3741 93.8652 49.3741C93.3121 49.3741 92.8873 49.0797 92.6897 48.7347H92.6601V51.7591H90.9413V45.0303C90.9413 44.2488 90.9216 43.5485 90.9018 42.9497H92.3835L92.4724 43.7414H92.5021ZM92.6601 46.7252C92.6601 47.3646 92.9762 47.8314 93.4108 47.8314C94.0134 47.8314 94.3196 47.1007 94.3196 46.1162C94.3196 45.0607 94.0035 44.4112 93.4306 44.4112C93.0256 44.4112 92.6601 44.8273 92.6601 45.4971V46.7252Z" fill="#050000"/>
<path d="M104.286 46.0655C104.286 48.5216 102.913 49.3842 101.708 49.3842C100.187 49.3842 99.14 48.1765 99.14 46.1467C99.14 44.0255 100.256 42.8279 101.768 42.8279C103.338 42.8279 104.286 44.1676 104.286 46.0655ZM101.728 44.259C101.086 44.259 100.879 45.2231 100.879 46.0959C100.879 47.1514 101.145 47.9431 101.728 47.9431C102.281 47.9431 102.548 47.1007 102.548 46.0959C102.548 45.1622 102.321 44.259 101.728 44.259Z" fill="#050000"/>
<path d="M110.895 44.7461C110.776 44.7157 110.648 44.7055 110.47 44.7055C110.035 44.7055 109.621 44.9389 109.472 45.4971C109.423 45.6392 109.403 45.8625 109.403 46.0858V49.2421H107.684V44.9694C107.684 44.1372 107.665 43.4978 107.645 42.9294H109.117L109.186 43.9849H109.225C109.502 43.1527 110.075 42.8076 110.529 42.8076C110.697 42.8076 110.786 42.8178 110.895 42.8381V44.7461Z" fill="#050000"/>
<path d="M118.935 46.0655C118.935 48.5216 117.562 49.3842 116.357 49.3842C114.836 49.3842 113.789 48.1765 113.789 46.1467C113.789 44.0255 114.905 42.8279 116.417 42.8279C117.987 42.8279 118.935 44.1676 118.935 46.0655ZM116.377 44.259C115.735 44.259 115.528 45.2231 115.528 46.0959C115.528 47.1514 115.794 47.9431 116.377 47.9431C116.93 47.9431 117.197 47.1007 117.197 46.0959C117.197 45.1622 116.96 44.259 116.377 44.259Z" fill="#050000"/>
<path d="M86.358 23.017L72.677 8.95045C72.2918 8.54449 71.9461 8.75761 71.7386 8.97074L68.4295 12.3707C68.2715 12.5331 68.3011 13.0405 68.4592 13.2029L79.0878 24.1233L79.3348 24.377L70.2866 33.6735C70.1088 33.8257 70.1384 34.049 70.1878 34.2012C70.2668 34.4245 70.5237 34.4651 70.6817 34.4651L77.3493 34.5057C77.7642 34.5057 78.1988 34.1302 78.2778 34.049L86.3086 25.7978C86.6247 25.3919 87.6816 24.3871 86.358 23.017Z" fill="#040000"/>
<path d="M51.9729 12.401L65.6538 26.4574C66.0391 26.8634 66.3848 26.6502 66.5922 26.4371L69.9013 23.0372C70.0594 22.8748 70.0298 22.3674 69.8717 22.205L59.2529 11.2948L59.006 11.041L68.0542 1.74451C68.232 1.59228 68.2023 1.369 68.1529 1.21676C68.0739 0.993485 67.8171 0.952888 67.659 0.952888L60.9914 0.912292C60.5766 0.912292 60.1419 1.28781 60.0629 1.369L52.0322 9.62016C51.7062 10.016 50.6492 11.0207 51.9729 12.401Z" fill="#040000"/>
<path d="M119.35 23.017L105.669 8.96061C105.284 8.55465 104.938 8.76778 104.731 8.98091L101.422 12.3808C101.264 12.5432 101.293 13.0507 101.451 13.2131L112.08 24.1334L112.327 24.3871L103.279 33.6837C103.101 33.8359 103.131 34.0592 103.18 34.2114C103.259 34.4347 103.516 34.4753 103.674 34.4753L110.342 34.5159C110.756 34.5159 111.191 34.1404 111.27 34.0592L119.301 25.808C119.617 25.3919 120.674 24.3871 119.35 23.017Z" fill="#040000"/>
<path d="M84.9652 12.401L98.6461 26.4574C99.0314 26.8634 99.3771 26.6502 99.5845 26.4371L102.894 23.0372C103.052 22.8748 103.022 22.3674 102.864 22.205L92.2354 11.2948L91.9884 11.041L101.037 1.74451C101.214 1.59228 101.185 1.369 101.135 1.21676C101.056 0.993485 100.8 0.952888 100.641 0.952888L93.9739 0.912292C93.559 0.912292 93.1244 1.28781 93.0453 1.369L85.0146 9.62016C84.6985 10.016 83.6416 11.0207 84.9652 12.401Z" fill="#040000"/>
<path d="M24.4628 16.5622L27.7225 9.31582L23.9887 1.01391C23.9195 0.871821 23.7319 0.658691 23.5738 0.658691H18.052C17.7853 0.678989 17.6964 0.750033 17.6372 0.922567C17.568 1.0951 17.5779 1.25748 17.6767 1.45032L24.4628 16.5622Z" fill="#535253"/>
<path d="M49.9874 0.922567C49.9182 0.750033 49.8392 0.678989 49.5725 0.658691H44.0408C43.8828 0.658691 43.6951 0.871821 43.626 1.01391L33.8073 22.8546L30.9822 16.5622L27.7225 23.8086L32.296 33.9881C32.4837 34.4245 32.8887 34.4854 33.0467 34.4854H33.8073H34.5679C34.7259 34.4854 35.1309 34.4245 35.3186 33.9881L49.9478 1.44017C50.0466 1.25748 50.0565 1.0951 49.9874 0.922567Z" fill="#535253"/>
<path d="M32.3948 0.922567C32.3257 0.750033 32.2466 0.678989 31.9799 0.658691H26.4582C26.3001 0.658691 26.1125 0.871821 26.0433 1.01391L16.2246 22.8546L6.40597 1.01391C6.33683 0.871821 6.14915 0.658691 5.9911 0.658691H0.459455C0.192751 0.678989 0.103849 0.750033 0.0445818 0.922567C-0.0245638 1.0951 -0.0146859 1.25748 0.0840935 1.45032L14.7133 33.9983C14.901 34.4347 15.306 34.4956 15.464 34.4956H16.2246H16.9852C17.1433 34.4956 17.5483 34.4347 17.736 33.9983L32.3652 1.45032C32.4541 1.25748 32.464 1.0951 32.3948 0.922567Z" fill="#040000"/>
</svg>
