<svg width="168" height="70" viewBox="0 0 168 70" fill="none" xmlns="http://www.w3.org/2000/svg">
<g clip-path="url(#clip0_16_1332)">
<path d="M12.1759 54.3785L9.86852 66.1708H7.31191L6.58966 61.8693C6.39153 60.77 6.2573 59.5684 6.12308 58.1622C5.93134 59.5684 5.76516 60.7572 5.54785 61.9013L4.74251 66.19H2.1859L0 54.3785H2.55661L3.15741 58.9868C3.33638 60.3609 3.48338 61.8246 3.63678 63.1221C3.80296 61.7671 4.04584 60.3929 4.27593 58.9548L5.04291 54.3785H7.36943L8.07889 59.0443C8.28342 60.3993 8.4496 61.6648 8.58382 63.0837H8.62217C8.75639 61.6648 8.92257 60.3354 9.11432 58.9484L9.75347 54.3721L12.1759 54.3785Z" fill="white"/>
<path d="M21.7312 65.8323C20.9204 66.1635 20.0502 66.3245 19.1746 66.3053C16.7586 66.3053 15.3908 64.6882 15.3908 62.0038C15.3908 59.5495 16.6691 57.3955 18.9701 57.3955C20.8044 57.3955 22.1019 58.7697 22.1019 61.6842C22.1097 62.0626 22.0862 62.441 22.0316 62.8155H17.6854C17.7429 63.8382 18.561 64.3111 19.5581 64.3111C20.1886 64.3109 20.8141 64.1983 21.4052 63.9788L21.7312 65.8323ZM19.916 60.9684C19.916 60.2078 19.6987 59.2427 18.8614 59.2427C18.0241 59.2427 17.7301 60.2525 17.6854 60.9684H19.916Z" fill="white"/>
<path d="M29.2285 58.5018C29.4332 58.1652 29.7229 57.8882 30.0684 57.6986C30.4138 57.509 30.8031 57.4135 31.197 57.4217C32.9036 57.4217 33.9326 59.2369 33.9326 61.6912C33.9326 64.7719 32.4562 66.3443 30.8455 66.3443C30.4345 66.3485 30.0316 66.2289 29.6896 66.0009C29.3476 65.7728 29.0822 65.447 28.9281 65.0659L28.7619 66.1717H26.723C26.723 65.5006 26.7805 64.4907 26.7805 63.5512V53.8936H29.1837V58.5018H29.2285ZM29.1901 62.7586C29.1901 63.7173 29.7334 64.2095 30.2575 64.2095C31.0628 64.2095 31.5358 63.3722 31.5358 61.8446C31.5358 60.5024 31.1267 59.5692 30.2575 59.5692C29.727 59.5692 29.1901 60.1061 29.1901 61.0329V62.7586Z" fill="white"/>
<path d="M44.3252 56.9608C43.7577 56.6406 43.1169 56.4732 42.4653 56.475C41.5385 56.475 41.0847 56.9799 41.0847 57.5552C41.0847 58.1304 41.5449 58.5267 42.8232 59.185C44.5042 60.0223 45.2009 61.1856 45.2009 62.6492C45.2009 64.7968 43.7372 66.3243 41.1806 66.3243C40.2723 66.3267 39.3771 66.1073 38.5729 65.6852L38.9883 63.4545C39.69 63.8506 40.4775 64.0699 41.2829 64.0937C42.2927 64.0937 42.7849 63.6079 42.7849 62.9049C42.7849 62.2018 42.3055 61.7928 41.2126 61.2431C39.5444 60.3866 38.656 59.2297 38.656 57.8236C38.656 55.8231 40.0237 54.2571 42.4909 54.2571C43.2866 54.2389 44.0746 54.4167 44.7854 54.7749L44.3252 56.9608Z" fill="white"/>
<path d="M50.2118 56.0154L52.5895 55.2676V57.5877H54.1874V59.5052H52.5895V62.7393C52.5895 63.7491 52.8771 64.1134 53.4523 64.1134C53.6682 64.1241 53.8843 64.0982 54.0915 64.0368V66.114C53.6127 66.2567 53.1145 66.3235 52.615 66.3121C50.2502 66.3121 50.2118 64.0559 50.2118 63.078V59.5243H49.2723V57.6069H50.2182L50.2118 56.0154Z" fill="white"/>
<path d="M65.494 63.4101C65.494 64.4647 65.5323 65.4107 65.5643 66.1713H63.487L63.3784 65.1039H63.34C63.1216 65.4797 62.8082 65.7914 62.4313 66.0079C62.0544 66.2244 61.6271 66.3381 61.1925 66.3374C59.6329 66.3374 58.7573 65.1614 58.7573 62.6943V57.5811H61.1605V62.3108C61.1605 63.4677 61.4481 64.1388 62.1192 64.1388C62.6114 64.1388 63.0908 63.7105 63.0908 62.8605V57.5811H65.494V63.4101Z" fill="white"/>
<path d="M77.3375 63.5503C77.3375 64.4962 77.3375 65.4677 77.395 66.1708H75.2922L75.1835 65.0587H75.1452C74.9591 65.4372 74.6719 65.7569 74.3155 65.9825C73.9591 66.2081 73.5472 66.3308 73.1255 66.337C71.3614 66.337 70.2173 64.4195 70.2173 61.914C70.2173 58.9995 71.6362 57.44 73.2405 57.44C73.5734 57.4147 73.9067 57.4841 74.2019 57.6402C74.4971 57.7963 74.7421 58.0326 74.9087 58.322H74.947V53.8799H77.3375V63.5503ZM74.9343 61.0959C74.9343 59.9071 74.2951 59.5556 73.8988 59.5556C73.0232 59.5556 72.6205 60.6229 72.6205 61.9204C72.6205 63.3969 73.1382 64.1766 73.8988 64.1766C74.3526 64.1766 74.9534 63.8571 74.9534 62.681L74.9343 61.0959Z" fill="white"/>
<path d="M88.9892 57.5811L87.3083 63.685C86.5157 66.3247 85.8702 67.7755 85.0393 68.7215C84.4757 69.3629 83.7242 69.8102 82.8917 69.9998L82.3037 67.7116C83.3008 67.4815 84.2595 66.3694 84.2595 65.8645C84.252 65.7317 84.2195 65.6016 84.1636 65.481L81.6518 57.5938H84.2915L85.1927 61.8059C85.3013 62.2916 85.41 62.8413 85.4803 63.3015H85.5186C85.6017 62.8413 85.6848 62.2916 85.7615 61.825L86.4965 57.6002L88.9892 57.5811Z" fill="white"/>
<path d="M98.8514 56.961C98.2839 56.6409 97.643 56.4735 96.9914 56.4753C96.0646 56.4753 95.6108 56.9802 95.6108 57.5554C95.6108 58.1307 96.0455 58.5333 97.3302 59.1853C99.0111 60.0226 99.7078 61.1858 99.7078 62.6367C99.7078 64.7842 98.2442 66.3118 95.6875 66.3118C94.7792 66.3142 93.8841 66.0948 93.0798 65.6727L93.4889 63.4165C94.1905 63.8125 94.978 64.0319 95.7834 64.0556C96.7933 64.0556 97.2854 63.5699 97.2854 62.8668C97.2854 62.1637 96.8061 61.7547 95.7131 61.205C94.0449 60.3485 93.1565 59.1917 93.1565 57.7855C93.1565 55.785 94.5243 54.2191 96.9914 54.2191C97.7872 54.2008 98.5752 54.3786 99.286 54.7368L98.8514 56.961Z" fill="white"/>
<path d="M110.311 64.1447C110.296 64.8222 110.337 65.4999 110.433 66.1708H108.272L108.138 65.3463H108.1C107.88 65.6652 107.583 65.9233 107.237 66.0966C106.89 66.2698 106.506 66.3525 106.119 66.337C104.725 66.337 103.811 65.1481 103.811 63.6973C103.811 61.4219 105.626 60.4504 107.895 60.4312C107.895 59.792 107.633 59.2999 106.668 59.2999C105.986 59.2995 105.318 59.5019 104.751 59.8815L104.323 58.1622C105.177 57.669 106.148 57.4151 107.135 57.4272C109.691 57.4272 110.331 59.2296 110.331 61.1343L110.311 64.1447ZM107.972 62.1186C106.975 62.1186 106.125 62.4381 106.125 63.4288C106.125 64.1319 106.508 64.4387 106.93 64.4387C107.079 64.4317 107.225 64.3943 107.359 64.3289C107.493 64.2635 107.612 64.1714 107.709 64.0582C107.806 63.9451 107.879 63.8133 107.923 63.671C107.967 63.5287 107.982 63.3788 107.966 63.2307L107.972 62.1186Z" fill="white"/>
<path d="M117.54 58.6672C117.743 58.2772 118.049 57.9512 118.426 57.7255C118.803 57.4998 119.236 57.3832 119.675 57.3889C121.369 57.3889 122.532 59.2168 122.532 61.7798C122.532 64.9245 120.96 66.3114 119.458 66.3114C119.132 66.3227 118.809 66.2483 118.52 66.0958C118.232 65.9433 117.989 65.7179 117.815 65.4422H117.777V69.5583H115.367V60.4184C115.367 59.3511 115.367 58.4051 115.31 57.5806H117.387L117.508 58.6608L117.54 58.6672ZM117.77 62.7258C117.77 63.595 118.205 64.2342 118.825 64.2342C119.675 64.2342 120.103 63.2435 120.103 61.9013C120.103 60.5591 119.669 59.5812 118.857 59.5812C118.294 59.5812 117.777 60.1436 117.777 61.0576L117.77 62.7258Z" fill="white"/>
<path d="M129.403 58.6672C129.605 58.2772 129.912 57.9512 130.289 57.7255C130.666 57.4998 131.098 57.3832 131.538 57.3889C133.231 57.3889 134.395 59.2168 134.395 61.7798C134.395 64.9245 132.822 66.3114 131.32 66.3114C130.994 66.3227 130.671 66.2483 130.383 66.0958C130.095 65.9433 129.852 65.7179 129.678 65.4422H129.639V69.5583H127.236V60.4184C127.236 59.3511 127.236 58.4051 127.179 57.5806H129.256L129.377 58.6608L129.403 58.6672ZM129.633 62.7258C129.633 63.595 130.068 64.2342 130.688 64.2342C131.538 64.2342 131.966 63.2435 131.966 61.9013C131.966 60.5591 131.531 59.5812 130.72 59.5812C130.157 59.5812 129.639 60.1436 129.639 61.0576L129.633 62.7258Z" fill="white"/>
<path d="M145.899 61.8252C145.899 65.168 143.982 66.3376 142.295 66.3376C140.16 66.3376 138.703 64.6886 138.703 61.9275C138.703 59.0449 140.262 57.415 142.378 57.415C144.493 57.415 145.899 59.2494 145.899 61.8252ZM142.32 59.3708C141.419 59.3708 141.131 60.6811 141.131 61.8699C141.131 63.3016 141.502 64.3882 142.32 64.3882C143.138 64.3882 143.471 63.2441 143.471 61.8699C143.464 60.6044 143.17 59.3708 142.32 59.3708Z" fill="white"/>
<path d="M155.135 60.0417C154.943 59.9933 154.745 59.9718 154.547 59.9777C154.225 59.9658 153.909 60.0675 153.654 60.2649C153.4 60.4624 153.222 60.7431 153.154 61.0579C153.082 61.3201 153.05 61.5915 153.058 61.8632V66.1647H150.655V60.3612C150.655 59.2299 150.655 58.3607 150.597 57.5873H152.662L152.757 59.019H152.815C152.912 58.5953 153.139 58.2127 153.465 57.9249C153.79 57.6371 154.198 57.4587 154.63 57.4147C154.8 57.4106 154.969 57.4256 155.135 57.4595V60.0417Z" fill="white"/>
<path d="M166.384 61.8252C166.384 65.168 164.467 66.3376 162.779 66.3376C160.645 66.3376 159.187 64.6886 159.187 61.9275C159.187 59.0449 160.747 57.415 162.862 57.415C164.978 57.415 166.384 59.2494 166.384 61.8252ZM162.805 59.3708C161.904 59.3708 161.616 60.6811 161.616 61.8699C161.616 63.3016 161.987 64.3882 162.805 64.3882C163.623 64.3882 163.955 63.2441 163.955 61.8699C163.955 60.6044 163.623 59.3708 162.805 59.3708Z" fill="white"/>
<path d="M120.8 30.4428L101.625 11.2682C101.548 11.1675 101.449 11.0859 101.336 11.0297C101.222 10.9736 101.097 10.9443 100.97 10.9443C100.843 10.9443 100.718 10.9736 100.605 11.0297C100.491 11.0859 100.392 11.1675 100.315 11.2682L95.7323 15.9788C95.632 16.152 95.5824 16.3499 95.5891 16.5499C95.5959 16.75 95.6588 16.9441 95.7706 17.1101L110.637 31.9576L110.982 32.3027L98.3272 44.958C98.2346 45.0494 98.1722 45.167 98.1482 45.2949C98.1242 45.4228 98.1399 45.555 98.193 45.6738C98.2953 45.9742 98.6596 46.0317 98.8833 46.0317L108.215 46.0893C108.699 46.019 109.147 45.7949 109.493 45.4501L120.73 34.2138C121.19 33.6897 122.673 32.3219 120.8 30.4428Z" fill="white"/>
<path d="M72.71 15.9783L91.8846 35.1529C91.9616 35.2536 92.0607 35.3352 92.1743 35.3914C92.2879 35.4476 92.413 35.4768 92.5397 35.4768C92.6665 35.4768 92.7915 35.4476 92.9051 35.3914C93.0188 35.3352 93.1179 35.2536 93.1949 35.1529L97.7904 30.4807C97.8907 30.3075 97.9403 30.1096 97.9335 29.9095C97.9267 29.7095 97.8638 29.5154 97.752 29.3494L82.8853 14.4827L82.5402 14.1376L95.1954 1.48233C95.288 1.39087 95.3505 1.27332 95.3745 1.14539C95.3984 1.01747 95.3828 0.885274 95.3296 0.76648C95.2274 0.466078 94.8631 0.408554 94.6394 0.408554L85.3141 0.357422C84.8304 0.427651 84.3822 0.651761 84.0358 0.996574L72.7803 12.2137C72.3329 12.7506 70.8501 14.1184 72.71 15.9783Z" fill="white"/>
<path d="M166.966 30.4428L147.791 11.2682C147.714 11.1675 147.615 11.0859 147.502 11.0297C147.388 10.9736 147.263 10.9443 147.136 10.9443C147.009 10.9443 146.884 10.9736 146.771 11.0297C146.657 11.0859 146.558 11.1675 146.481 11.2682L141.892 15.9788C141.792 16.152 141.742 16.3499 141.749 16.5499C141.756 16.75 141.818 16.9441 141.93 17.1101L156.791 31.9576L157.136 32.3027L144.449 44.9516C144.356 45.043 144.293 45.1606 144.269 45.2885C144.245 45.4164 144.261 45.5486 144.314 45.6674C144.417 45.9678 144.781 46.0254 145.005 46.0254L154.336 46.0829C154.82 46.0126 155.268 45.7885 155.615 45.4437L166.851 34.2074C167.343 33.6897 168.826 32.3219 166.966 30.4428Z" fill="white"/>
<path d="M118.882 15.9783L138.057 35.1529C138.134 35.2536 138.233 35.3352 138.347 35.3914C138.46 35.4476 138.585 35.4768 138.712 35.4768C138.839 35.4768 138.964 35.4476 139.078 35.3914C139.191 35.3352 139.29 35.2536 139.367 35.1529L143.995 30.5254C144.095 30.3522 144.145 30.1543 144.138 29.9543C144.131 29.7542 144.068 29.5601 143.956 29.3941L129.039 14.4827L128.693 14.1376L141.349 1.48233C141.441 1.39087 141.504 1.27332 141.528 1.14539C141.552 1.01747 141.536 0.885274 141.483 0.76648C141.381 0.466078 141.016 0.408554 140.793 0.408554L131.461 0.357422C130.977 0.427651 130.529 0.651761 130.183 0.996574L118.934 12.2137C118.486 12.7506 117.003 14.1184 118.882 15.9783Z" fill="white"/>
<path d="M34.2266 21.6609L38.7838 11.786L33.5683 0.485756C33.4788 0.29401 33.204 0 32.9867 0H25.2593C24.8822 0 24.7672 0.127831 24.6713 0.357926C24.6238 0.474437 24.6043 0.600457 24.6142 0.725881C24.6242 0.851305 24.6635 0.972644 24.7288 1.08017L34.2266 21.6609Z" fill="white"/>
<path d="M69.9297 0.357926C69.8338 0.121439 69.7188 0.0255661 69.3417 0H61.6143C61.397 0 61.1222 0.29401 61.0327 0.485756L47.2973 30.2319L43.3409 21.6673L38.7838 31.5358L45.1881 45.3798C45.2784 45.5821 45.4256 45.7539 45.6117 45.8741C45.7978 45.9944 46.0147 46.058 46.2363 46.0573H48.3647C48.5862 46.058 48.8032 45.9944 48.9893 45.8741C49.1754 45.7539 49.3225 45.5821 49.4129 45.3798L69.8658 1.06099C69.9291 0.956353 69.9678 0.838656 69.9789 0.716836C69.99 0.595016 69.9731 0.472274 69.9297 0.357926Z" fill="white"/>
<path d="M45.3224 0.357713C45.2858 0.237399 45.2064 0.134619 45.0993 0.0687029C44.9922 0.00278727 44.8647 -0.0217212 44.7408 -0.000212809H37.007C36.7897 -0.000212809 36.5213 0.293797 36.4254 0.485543L22.69 30.2317L8.94822 0.485543C8.86513 0.293797 8.59669 -0.000212809 8.37937 -0.000212809H0.639236C0.516193 -0.0210241 0.389786 0.0038799 0.283831 0.0698073C0.177876 0.135735 0.0996886 0.238134 0.0639988 0.357713C0.0144942 0.4746 -0.00667853 0.601533 0.00220755 0.72816C0.0110936 0.854787 0.0497869 0.977519 0.115131 1.08635L20.5808 45.3796C20.6712 45.5819 20.8183 45.7536 21.0044 45.8739C21.1905 45.9942 21.4075 46.0578 21.629 46.0571H23.7574C23.9789 46.0578 24.1959 45.9942 24.382 45.8739C24.5681 45.7536 24.7152 45.5819 24.8056 45.3796L45.2585 1.06078C45.3218 0.95614 45.3605 0.838443 45.3716 0.716623C45.3827 0.594804 45.3658 0.472062 45.3224 0.357713Z" fill="white"/>
</g>
<defs>
<clipPath id="clip0_16_1332">
<rect width="167.877" height="70" fill="white"/>
</clipPath>
</defs>
</svg>
