<svg width="372" height="41" viewBox="0 0 372 41" fill="none" xmlns="http://www.w3.org/2000/svg">
<path d="M67.205 0.0615234C55.6222 0.0615234 46.2324 8.94786 46.2324 19.9092C46.2324 30.8705 55.6222 39.7568 67.205 39.7568C78.7879 39.7568 88.1777 30.8711 88.1777 19.9092C88.1777 8.94726 78.7879 0.0615234 67.205 0.0615234ZM67.205 33.3815C60.4207 33.3815 54.9211 27.3226 54.9211 19.849C54.9211 12.3755 60.4207 6.31652 67.205 6.31652C73.9894 6.31652 79.489 12.3749 79.489 19.849C79.489 27.3232 73.9894 33.3779 67.205 33.3779V33.3815Z" fill="black"/>
<path d="M276.83 15.9566C278.815 15.9566 280.425 14.3409 280.425 12.3479C280.425 10.3549 278.815 8.73926 276.83 8.73926C274.844 8.73926 273.234 10.3549 273.234 12.3479C273.234 14.3409 274.844 15.9566 276.83 15.9566Z" fill="black"/>
<path d="M276.83 39.1421C278.815 39.1421 280.425 37.5265 280.425 35.5335C280.425 33.5405 278.815 31.9248 276.83 31.9248C274.844 31.9248 273.234 33.5405 273.234 35.5335C273.234 37.5265 274.844 39.1421 276.83 39.1421Z" fill="black"/>
<path d="M204.68 4.8535H207.716V0.649414H195.732L186.466 20.1007C186.466 20.1007 185.627 21.8389 184.148 21.8389C182.668 21.8389 181.824 20.0887 181.824 20.0887L172.454 0.649414H160.879V4.8535H163.416C163.734 4.8535 164.039 4.98025 164.264 5.20584C164.488 5.43142 164.615 5.73737 164.615 6.05639C164.615 6.07143 164.622 6.07744 164.624 6.08947L163.331 33.777C163.32 34.0878 163.19 34.3823 162.967 34.5986C162.744 34.8149 162.447 34.9362 162.137 34.9371H160.279V39.1418H172.863V34.9371H171.167C171.154 34.9325 171.141 34.9295 171.128 34.9281C170.81 34.9281 170.505 34.8014 170.28 34.5758C170.055 34.3502 169.929 34.0443 169.929 33.7252C169.929 33.7192 169.926 33.7168 169.925 33.7108L170.565 19.9925C170.569 19.5589 170.715 19.1385 170.979 18.7956C171.243 18.4526 171.612 18.206 172.029 18.0934C172.447 17.9808 172.889 18.0085 173.289 18.1721C173.689 18.3357 174.025 18.6263 174.245 18.9995L183.095 34.5047C183.198 34.6936 183.35 34.8511 183.535 34.9609C183.719 35.0706 183.93 35.1285 184.145 35.1285C184.36 35.1285 184.57 35.0706 184.755 34.9609C184.94 34.8511 185.092 34.6936 185.195 34.5047L193.625 19.7428C193.827 19.4037 194.134 19.1403 194.499 18.9932C194.864 18.846 195.268 18.8232 195.647 18.9283C196.026 19.0334 196.361 19.2606 196.599 19.5749C196.838 19.8893 196.967 20.2734 196.966 20.6685C196.982 21.0125 197.582 33.7294 197.582 33.7294V33.7337C197.582 34.0527 197.456 34.3587 197.231 34.5842C197.007 34.8098 196.702 34.9365 196.384 34.9365H194.535V39.1413H207.718V34.9365H205.969C205.656 34.9366 205.356 34.8139 205.132 34.5945C204.908 34.3751 204.778 34.0765 204.771 33.7625L203.477 6.05639C203.477 5.89807 203.508 5.74132 203.569 5.5951C203.629 5.44889 203.718 5.31609 203.829 5.20433C203.941 5.09258 204.074 5.00405 204.22 4.94384C204.366 4.88364 204.522 4.85295 204.68 4.8535Z" fill="black"/>
<path d="M143.666 4.8535H146.703V0.649414H134.718L125.453 20.1007C125.453 20.1007 124.614 21.8389 123.134 21.8389C121.655 21.8389 120.811 20.0887 120.811 20.0887L111.441 0.649414H99.866V4.8535H102.403C102.72 4.8535 103.025 4.98025 103.25 5.20584C103.475 5.43142 103.601 5.73737 103.601 6.05639C103.601 6.07143 103.608 6.07744 103.611 6.08947L102.317 33.777C102.306 34.0878 102.176 34.3823 101.953 34.5986C101.731 34.8149 101.433 34.9362 101.123 34.9371H99.2656V39.1418H111.849V34.9371H110.155C110.142 34.9325 110.129 34.9295 110.115 34.9281C109.797 34.9281 109.492 34.8014 109.268 34.5758C109.043 34.3502 108.917 34.0443 108.917 33.7252C108.917 33.7192 108.913 33.7168 108.912 33.7108L109.553 19.9925C109.557 19.5589 109.702 19.1385 109.966 18.7956C110.231 18.4526 110.6 18.206 111.017 18.0934C111.434 17.9808 111.876 18.0085 112.277 18.1721C112.677 18.3357 113.012 18.6263 113.232 18.9995L122.082 34.5047C122.185 34.6936 122.337 34.8511 122.522 34.9609C122.707 35.0706 122.918 35.1285 123.132 35.1285C123.347 35.1285 123.558 35.0706 123.743 34.9609C123.928 34.8511 124.08 34.6936 124.183 34.5047L132.608 19.7447C132.81 19.4055 133.117 19.1421 133.482 18.995C133.847 18.8478 134.25 18.825 134.63 18.9301C135.009 19.0352 135.344 19.2624 135.582 19.5767C135.82 19.8911 135.949 20.2753 135.949 20.6703C135.965 21.0143 136.565 33.7313 136.565 33.7313V33.7355C136.565 34.0545 136.439 34.3605 136.214 34.586C135.989 34.8116 135.685 34.9383 135.367 34.9383H133.518V39.1431H146.7V34.9383H144.954C144.642 34.9377 144.342 34.8146 144.119 34.5953C143.895 34.376 143.766 34.0778 143.759 33.7643L142.464 6.05819C142.464 5.89997 142.496 5.74333 142.556 5.5972C142.616 5.45106 142.705 5.31831 142.817 5.20657C142.928 5.09484 143.061 5.00628 143.206 4.94601C143.352 4.88574 143.508 4.85491 143.666 4.8553V4.8535Z" fill="black"/>
<path d="M246.392 0.649414V4.8535H248.279C248.597 4.8535 248.902 4.98025 249.127 5.20584C249.351 5.43142 249.478 5.73737 249.478 6.05639V24.3656C249.478 29.7846 246.425 33.8335 240.77 33.8335C235.115 33.8335 232.1 29.8598 232.1 24.3656V6.05639C232.1 5.73737 232.226 5.43142 232.451 5.20584C232.676 4.98025 232.981 4.8535 233.299 4.8535H235.385V0.649414H221.004V4.8535H223.112C223.43 4.8535 223.735 4.98025 223.959 5.20584C224.184 5.43142 224.31 5.73737 224.31 6.05639V24.3842C224.31 33.1178 229.205 40.1487 240.769 40.1487C252.308 40.1487 257.262 33.0426 257.262 24.4407L257.266 6.03653C257.272 5.72148 257.401 5.42137 257.625 5.2007C257.849 4.98003 258.151 4.85646 258.465 4.85651H260.172V0.652424L246.392 0.649414Z" fill="black"/>
<path d="M330.756 19.8956C330.756 6.9724 321.48 0.769686 309.972 0.65481V0.649414H293.49V4.8535H295.506C295.824 4.8535 296.129 4.98025 296.353 5.20584C296.578 5.43142 296.704 5.73737 296.704 6.05639V33.368C296.704 33.687 296.578 33.993 296.353 34.2185C296.129 34.4441 295.824 34.5709 295.506 34.5709H293.509V39.1418H309.754C321.362 39.1034 330.756 32.9007 330.756 19.8956ZM308.705 33.7427C307.982 33.7404 307.261 33.6811 306.548 33.5653C306.139 33.4848 305.77 33.2642 305.506 32.9412C305.241 32.6182 305.096 32.2129 305.096 31.7946V7.51551C305.096 7.24658 305.186 6.98537 305.351 6.77365C305.516 6.56193 305.747 6.4119 306.007 6.3475C306.895 6.16902 307.798 6.07896 308.704 6.07864C316.314 6.07864 322.486 9.58987 322.486 19.9119C322.486 28.2785 316.314 33.7451 308.704 33.7451L308.705 33.7427Z" fill="black"/>
<path d="M365.249 29.1001V32.0635C365.248 32.5086 365.083 32.9375 364.785 33.2673C364.488 33.5972 364.079 33.8045 363.637 33.8491H353.668C353.191 33.8491 352.734 33.659 352.397 33.3206C352.06 32.9823 351.871 32.5233 351.871 32.0448V24.1057C351.871 23.6272 352.06 23.1683 352.397 22.8299C352.734 22.4915 353.191 22.3014 353.668 22.3014H362.397V17.4899H353.629C353.159 17.4795 352.713 17.2853 352.384 16.9488C352.056 16.6123 351.871 16.1602 351.871 15.6891V7.74586C351.871 7.26732 352.06 6.80837 352.397 6.46999C352.734 6.13162 353.191 5.94153 353.668 5.94153H362.866C363.342 5.94153 363.8 6.13162 364.137 6.46999C364.474 6.80837 364.663 7.26732 364.663 7.74586V10.4018H370.476V0.649414H340.738V4.8535H342.283C342.601 4.8535 342.906 4.98025 343.131 5.20584C343.355 5.43142 343.482 5.73737 343.482 6.05639V33.7342C343.482 34.0533 343.355 34.3592 343.131 34.5848C342.906 34.8104 342.601 34.9371 342.283 34.9371H340.738V39.1418H371.059V29.0977L365.249 29.1001Z" fill="black"/>
<path d="M30.9739 27.6361C28.7855 31.6399 25.0194 34.2958 20.6625 34.2958C13.8632 34.2958 8.35099 27.8333 8.35099 19.8612C8.35099 11.889 13.8638 5.42652 20.6625 5.42652C25.6588 5.42652 29.0797 8.87821 30.6365 11.4879H36.0648V0.537401H31.8703V1.88041C31.8699 2.18425 31.7542 2.47655 31.5467 2.69778C31.4061 2.8402 31.2356 2.94932 31.0476 3.01715C31.0218 3.02557 30.996 3.0346 30.9691 3.04182C30.882 3.06182 30.7934 3.07467 30.7042 3.08029C30.5223 3.08337 30.3419 3.04643 30.1757 2.97203C26.7435 0.838996 22.7429 -0.188254 18.7118 0.0283912C14.6807 0.245036 10.8123 1.69517 7.62661 4.18388C4.44093 6.67258 2.0907 10.0806 0.891855 13.9496C-0.306992 17.8187 -0.296983 21.9635 0.920534 25.8267C2.13805 29.6899 4.50471 33.0863 7.70237 35.5595C10.9 38.0327 14.7754 39.464 18.8075 39.661C22.8396 39.8581 26.8352 38.8114 30.257 36.6617C33.6789 34.512 36.3631 31.3623 37.9487 27.6361H30.9739Z" fill="black"/>
</svg>
