<svg width="226" height="60" viewBox="0 0 226 60" fill="none" xmlns="http://www.w3.org/2000/svg">
<path d="M7.95599 39.5326V59.0104H0V38.7102C0 26.9583 6.83064 17.7505 19.5276 17.7505C32.3837 17.7505 39.3754 26.9526 39.3754 38.6278V59.0123H31.4194V39.6151C31.4194 32.054 27.3935 25.5608 19.5334 25.5608C11.8132 25.5608 7.95599 32.054 7.95599 39.5326ZM53.9895 38.7926C53.9617 36.0278 54.4846 33.285 55.5277 30.7243C56.5707 28.1635 58.1131 25.836 60.0649 23.8775C62.0166 21.9189 64.3387 20.3685 66.8958 19.3166C69.453 18.2647 72.1939 17.7323 74.9588 17.7505C77.7336 17.697 80.4905 18.2053 83.0638 19.2447C85.6371 20.2842 87.9735 21.8333 89.9327 23.7989C91.8919 25.7646 93.4334 28.1061 94.4643 30.6828C95.4953 33.2595 95.9945 36.0181 95.932 38.7926V59.0123H88.3786V51.944C86.8669 54.4558 84.7181 56.5234 82.1501 57.9374C79.582 59.3514 76.6858 60.0615 73.7549 59.9958C62.3481 59.9977 53.9895 50.464 53.9895 38.7926ZM87.9798 38.8751C87.906 36.3164 87.0797 33.8363 85.6043 31.7446C84.129 29.6529 82.0699 28.0423 79.6844 27.1142C77.2989 26.186 74.6927 25.9815 72.1916 26.5261C69.6905 27.0707 67.4054 28.3402 65.6217 30.1762C63.8381 32.0121 62.635 34.333 62.1629 36.8488C61.6908 39.3645 61.9705 41.9637 62.9671 44.3214C63.9637 46.6791 65.6331 48.6908 67.7666 50.1052C69.9 51.5195 72.403 52.2738 74.9627 52.2737C76.7002 52.2561 78.4169 51.8943 80.0138 51.2094C81.6107 50.5245 83.0561 49.5299 84.2664 48.2832C85.4768 47.0365 86.4281 45.5624 87.0654 43.9459C87.7028 42.3295 88.0136 40.6027 87.9798 38.8655V38.8751ZM104.85 38.9575C104.85 26.711 113.529 17.7524 125.421 17.7524C127.941 17.7592 130.432 18.2971 132.73 19.331C135.028 20.3649 137.083 21.8716 138.76 23.7529L138.841 0.247302H146.797V38.9575C146.797 44.5204 144.587 49.8555 140.653 53.7891C136.72 57.7227 131.384 59.9326 125.822 59.9326C120.259 59.9326 114.924 57.7227 110.99 53.7891C107.056 49.8555 104.847 44.5204 104.847 38.9575H104.85ZM138.841 38.8751C138.752 36.3194 137.913 33.8463 136.428 31.7642C134.943 29.6821 132.879 28.0831 130.491 27.1664C128.104 26.2498 125.5 26.0561 123.003 26.6094C120.506 27.1628 118.228 28.4387 116.451 30.2782C114.675 32.1177 113.479 34.4394 113.013 36.9538C112.547 39.4683 112.832 42.0642 113.831 44.4181C114.83 46.772 116.5 48.7798 118.633 50.191C120.765 51.6022 123.266 52.3546 125.823 52.3542C127.568 52.3388 129.293 51.9759 130.896 51.2866C132.499 50.5974 133.948 49.5956 135.16 48.3398C136.371 47.084 137.32 45.5994 137.952 43.9727C138.583 42.346 138.884 40.6098 138.837 38.8655L138.841 38.8751ZM160.121 5.42349C160.099 4.01306 160.637 2.65148 161.615 1.63555C162.594 0.619616 163.934 0.0317169 165.345 0C166.039 0.017633 166.722 0.172003 167.357 0.454273C167.991 0.736543 168.563 1.14116 169.041 1.64496C169.518 2.14876 169.892 2.74183 170.14 3.39021C170.388 4.0386 170.506 4.72955 170.486 5.42349C170.505 6.11325 170.386 6.79977 170.136 7.44313C169.887 8.08648 169.512 8.67383 169.034 9.17101C168.555 9.66819 167.983 10.0653 167.349 10.3392C166.716 10.6131 166.035 10.7583 165.345 10.7665C164.65 10.76 163.964 10.6165 163.326 10.3442C162.687 10.0719 162.108 9.67621 161.623 9.17981C161.138 8.6834 160.755 8.09606 160.497 7.45146C160.239 6.80686 160.111 6.11769 160.121 5.42349ZM169.361 18.7397V59.0123H161.407V18.7359H169.361V18.7397ZM183.977 38.7946C183.949 36.0293 184.472 33.2861 185.515 30.725C186.558 28.1639 188.101 25.8361 190.053 23.8775C192.005 21.9188 194.328 20.3685 196.886 19.3169C199.443 18.2652 202.185 17.7334 204.95 17.7524C207.725 17.699 210.482 18.2072 213.055 19.2467C215.628 20.2861 217.965 21.8352 219.924 23.8009C221.883 25.7665 223.425 28.1081 224.456 30.6847C225.487 33.2614 225.986 36.02 225.923 38.7946V59.0123H218.37V51.944C216.858 54.4558 214.709 56.5234 212.14 57.9374C209.572 59.3514 206.675 60.0615 203.744 59.9958C192.334 59.9977 183.977 50.4659 183.977 38.7946ZM217.975 38.8655C217.901 36.3069 217.075 33.8267 215.599 31.735C214.124 29.6433 212.065 28.0327 209.679 27.1046C207.294 26.1765 204.688 25.9719 202.187 26.5165C199.686 27.0611 197.4 28.3307 195.617 30.1666C193.833 32.0025 192.63 34.3234 192.158 36.8392C191.686 39.3549 191.966 41.9541 192.962 44.3118C193.959 46.6695 195.628 48.6812 197.762 50.0956C199.895 51.5099 202.398 52.2642 204.958 52.2641C206.694 52.2465 208.41 51.885 210.007 51.2007C211.603 50.5164 213.048 49.5227 214.258 48.277C215.468 47.0314 216.42 45.5583 217.058 43.943C217.696 42.3276 218.007 40.6019 217.975 38.8655Z" fill="black"/>
</svg>
