<svg width="206" height="101" viewBox="0 0 206 101" fill="none" xmlns="http://www.w3.org/2000/svg">
<path d="M205.134 60.3065C204.586 59.825 203.832 59.8938 203.352 60.3753L203.284 60.4441C200.268 63.8835 196.704 67.1166 192.798 69.2491C191.838 69.7306 190.81 70.2121 189.851 70.4873C188.891 70.7624 187.863 70.9688 186.973 70.9H186.835H186.63H186.493H186.424C186.287 70.9 186.15 70.8312 186.013 70.7624C185.739 70.6249 185.396 70.3497 185.054 70.0746C184.368 69.4555 183.751 68.63 183.203 67.6669C182.038 65.8096 181.147 63.746 180.325 61.5447C180.051 60.788 179.776 60.1001 179.571 59.3435C180.051 58.6556 180.53 57.9677 181.079 57.2798C183.888 53.2212 186.082 48.7499 187.726 44.0723C188.549 41.7334 189.234 39.3946 189.782 36.987C190.331 34.5794 190.742 32.1718 191.016 29.7641C191.633 24.8801 191.838 19.9961 191.427 14.9745C191.222 12.4981 190.81 9.95288 189.988 7.40769C189.508 6.10069 188.96 4.7937 188.001 3.5555C187.521 2.93639 186.904 2.31729 186.15 1.76698C185.396 1.28546 184.505 0.872722 183.546 0.735144C181.695 0.391198 179.776 0.941511 178.406 1.83577C176.966 2.73003 175.938 3.83065 175.116 5.00007C173.471 7.3389 172.512 9.88409 171.895 12.3605C171.21 14.8369 170.798 17.3133 170.524 19.7897C170.25 22.2661 170.113 24.7425 170.113 27.1502C170.045 29.6266 170.113 32.0342 170.25 34.4418L170.319 36.2303C170.319 36.8494 170.387 37.4685 170.456 38.0876C170.524 39.3258 170.73 40.564 170.867 41.8022C171.552 46.6863 172.58 51.4327 173.951 56.1792C174.294 57.4174 174.705 58.5868 175.116 59.825C174.773 60.1689 174.431 60.5817 174.088 60.9256L173.471 61.6135C173.266 61.8199 173.129 62.0262 172.923 62.1638C172.512 62.5765 172.101 62.9205 171.689 63.2644C170.867 63.9523 169.907 64.6402 168.948 65.2593C165.179 67.6669 160.861 69.7994 157.092 69.2491C156.201 69.1115 155.447 68.7676 154.898 68.3548C155.447 68.1485 155.926 67.8733 156.406 67.5981C157.571 66.9103 158.599 66.016 159.49 64.9154C160.381 63.8147 161.066 62.7141 161.615 61.4071C162.163 60.1001 162.506 58.518 162.3 56.867C162.095 55.2161 161.135 53.5652 159.764 52.5333C159.422 52.2582 159.01 52.0518 158.599 51.7766C158.394 51.6391 158.12 51.5703 157.845 51.5015C157.708 51.4327 157.503 51.4327 157.297 51.4327C157.092 51.4327 156.817 51.3639 156.406 51.4327L155.995 51.5015L155.721 51.5703C155.515 51.6391 155.378 51.7079 155.173 51.7766C154.761 51.9142 154.419 52.0518 154.007 52.2582C152.5 53.0836 151.403 54.3219 150.581 55.6288C149.827 56.9358 149.347 58.3116 149.073 59.6874C148.799 61.0632 148.662 62.3702 148.662 63.6772C148.662 64.9842 148.73 66.3599 149.21 67.8045C148.525 68.0109 147.839 68.2172 147.154 68.4236C145.646 68.8363 144.07 69.1115 142.562 69.2491C141.054 69.3179 139.615 69.2491 138.382 68.8363C137.285 68.4924 136.326 67.8045 135.777 66.9103C135.229 66.016 134.886 65.0529 134.749 63.8835V63.6772V63.402C134.749 63.2644 134.749 63.0581 134.749 62.9205C134.749 62.5765 134.749 62.2326 134.749 61.8886C134.818 61.2008 134.886 60.4441 135.023 59.7562C135.298 58.4492 135.709 57.0734 136.326 56.0416C136.463 56.2479 136.668 56.3855 136.942 56.4543C137.696 56.7295 138.45 56.3167 138.724 55.5601C138.93 55.0097 139.067 54.597 139.067 53.9779C139.067 53.634 139.135 53.29 138.861 52.6021C138.724 52.2582 138.382 51.8454 137.833 51.5703C137.559 51.4327 137.285 51.4327 137.079 51.3639H136.942H136.874H136.805H136.668C135.64 51.4327 135.092 51.7766 134.544 52.1206C133.995 52.4645 133.653 52.8773 133.242 53.2212C131.802 54.8034 130.911 56.4543 130.295 58.3116C129.952 59.2059 129.678 60.1689 129.541 61.132C129.472 61.6135 129.404 62.095 129.335 62.5765C129.335 62.8517 129.267 63.0581 129.267 63.3332C129.267 63.4708 129.267 63.5396 129.267 63.6772V64.1587C129.267 64.709 129.335 65.1905 129.404 65.7408C128.101 66.7039 126.662 67.5981 125.223 68.286C124.264 68.7676 123.304 69.1115 122.413 69.3179C121.522 69.5242 120.7 69.5242 120.289 69.3179C120.083 69.2491 119.877 69.1115 119.74 68.9051C119.672 68.8363 119.603 68.6988 119.535 68.5612C119.466 68.4924 119.466 68.4236 119.466 68.3548L119.398 68.1485L119.329 68.0797C119.329 68.0109 119.329 68.1485 119.329 68.1485C119.055 67.4606 118.918 66.4287 118.781 65.3281C118.575 63.1956 118.575 60.9256 118.37 58.518C118.232 57.2798 118.164 56.0416 117.616 54.5282C117.479 54.1155 117.273 53.7027 116.999 53.29C116.725 52.8085 116.245 52.327 115.56 51.983C115.423 51.9142 115.217 51.8454 115.011 51.7766L114.737 51.7079C114.6 51.7079 114.532 51.6391 114.395 51.6391H114.257H114.189H114.12H113.983H113.915C113.504 51.6391 113.161 51.7767 112.887 51.8454C112.407 52.0518 112.133 52.2582 111.927 52.3958C111.722 52.6021 111.585 52.7397 111.379 52.8773C110.831 53.4964 110.488 53.9779 110.077 54.5282C109.734 55.0785 109.392 55.5601 109.117 56.1104C108.98 56.3855 108.775 56.6607 108.638 56.9358C108.706 56.2479 108.638 55.4913 108.569 54.7346C108.501 54.3218 108.432 53.9091 108.295 53.4964C108.158 53.0836 108.021 52.6021 107.61 52.0518C107.404 51.7767 107.13 51.4327 106.65 51.0888C106.376 50.9512 106.033 50.7448 105.622 50.676C105.211 50.6072 104.731 50.6072 104.32 50.7448C104.114 50.8136 103.977 50.8824 103.772 50.9512L103.566 51.0888C103.635 51.0888 103.429 51.1576 103.36 51.2263C103.086 51.4327 103.086 51.5015 103.018 51.5703C102.744 51.9142 102.675 52.1206 102.607 52.2582C102.47 52.6021 102.401 52.8085 102.332 53.0149C102.127 53.8403 102.058 54.5282 101.921 55.2161C101.853 55.904 101.784 56.5231 101.716 57.211C101.579 58.9307 101.442 60.6504 101.304 62.3014C99.5226 63.8147 97.5351 65.1905 95.5476 66.2912C93.423 67.4606 91.2299 68.4236 89.1053 68.6988C88.0088 68.8363 86.9122 68.9051 85.9528 68.7676C85.0618 68.63 84.3079 68.3548 83.8282 67.9421C84.1023 67.8733 84.3765 67.7357 84.5821 67.5981C85.2674 67.2542 85.8842 66.9103 86.501 66.4975C87.7347 65.672 88.7627 64.5714 89.6536 63.3332C89.8592 62.9893 90.0648 62.7141 90.2704 62.3702C90.476 61.9574 90.5446 61.8886 90.8187 61.4071C91.1614 60.7192 91.4355 59.9626 91.6411 59.1371C91.8467 58.3116 91.8467 57.3486 91.7096 56.3167C91.504 55.2849 91.0243 54.3219 90.339 53.5652C89.6536 52.8085 88.8312 52.2582 87.9403 51.8454C87.529 51.6391 87.0493 51.5015 86.501 51.4327C86.2269 51.3639 85.9528 51.3639 85.4045 51.3639C85.3359 51.3639 85.336 51.3639 85.1303 51.3639L84.8562 51.4327L84.6506 51.5015L84.3765 51.5703C83.6226 51.7767 82.6631 52.1206 81.9092 52.6021C81.0868 53.0836 80.4015 53.7027 79.8532 54.3906C78.6881 55.7664 78.0713 57.2798 77.6601 58.7244C77.2489 60.1689 77.0433 61.6135 76.9062 63.0581C76.9062 63.3332 76.8377 63.6772 76.8377 64.0211C76.3579 63.9523 75.9467 63.8835 75.5355 63.746C73.9592 63.2644 72.7941 62.439 71.9717 61.132C71.1493 59.8938 70.6696 58.2428 70.2584 56.3855C70.1213 55.904 70.0528 55.4225 69.9157 54.8722C69.8472 54.597 69.7786 54.3218 69.6416 53.9779C69.5045 53.634 69.3674 53.2212 68.8877 52.7397C68.7506 52.6021 68.6135 52.4645 68.4765 52.327L68.2023 52.1206C68.2023 52.1206 67.9967 51.983 67.8597 51.9142C67.7226 51.8454 67.5855 51.7767 67.517 51.7079C67.0373 51.5015 66.5575 51.3639 66.0092 51.3639C64.9812 51.3639 64.1588 51.6391 63.4735 51.983C62.1713 52.7397 61.3489 53.634 60.6636 54.597C60.595 54.6658 60.595 54.6658 60.5265 54.7346C60.5265 54.2531 60.5265 53.8403 60.458 53.29C60.458 53.1524 60.4579 52.9461 60.3894 52.7397C60.3894 52.6709 60.3209 52.5333 60.3209 52.3958C60.2523 52.2582 60.2523 52.0518 60.0467 51.7079C59.9097 51.5015 59.8411 51.2951 59.3614 50.8824C58.4704 50.3321 58.6075 50.5385 58.4019 50.4697C58.0592 50.4009 57.8536 50.4009 57.648 50.4009C57.3739 50.4009 57.1683 50.4697 56.9627 50.6072C56.5515 50.8136 56.2773 51.02 56.1403 51.1576C55.9347 51.2951 55.8661 51.4327 55.7976 51.5703C55.4549 51.983 55.3864 52.2582 55.2493 52.4645L54.9067 53.1524C54.4955 53.9779 54.0842 54.7346 53.6045 55.5601C52.645 57.0734 51.5485 58.5868 50.3149 59.9626C49.0812 61.4071 47.7791 62.6453 46.4084 63.8835C45.0377 65.1217 43.5299 66.1536 41.9536 67.1854C40.3774 68.1485 38.8011 69.0427 37.0877 69.7306C36.4024 70.0058 35.717 70.2121 35.0317 70.4873C33.7981 69.8682 32.5644 69.3179 31.3993 68.7676C31.2623 66.7727 31.1937 64.7778 31.1252 62.7829C31.0567 60.1689 30.9881 57.5549 30.9881 54.941C34.9631 52.5333 38.7325 49.713 42.1593 46.4111C45.0377 43.5908 47.642 40.4952 49.7666 36.987C51.8911 33.4788 53.4674 29.6266 54.3584 25.568C55.2493 21.5094 55.3864 17.2445 54.3584 13.1172C53.8786 11.0535 53.1248 8.98984 52.0282 7.13253C50.9317 5.20644 49.4239 3.48671 47.3679 2.17971C46.5455 1.6294 45.3804 1.07909 44.1468 0.735144C42.9131 0.391198 41.611 0.322409 40.3088 0.459987C37.7045 0.803933 35.4429 2.2485 33.7981 4.1746C32.2218 6.0319 31.2623 8.09558 30.5084 10.0217C29.7545 12.0166 29.2062 14.0114 28.7265 15.9375C26.9446 23.8483 26.3963 31.6902 25.9851 39.5322C25.7795 43.4532 25.711 47.3742 25.6425 51.2263C25.6425 52.327 25.6425 53.4276 25.6425 54.5282C24.2718 55.4225 22.8325 56.3167 21.3933 57.211C20.845 57.5549 20.6394 58.2428 20.9136 58.7931C21.1877 59.4122 21.9416 59.7562 22.5584 59.4122C23.5864 58.9307 24.683 58.4492 25.711 57.8989C25.7795 59.5498 25.7795 61.2695 25.9166 62.9205C25.9851 64.0899 26.0537 65.2593 26.1222 66.4287C24.1347 65.672 22.2157 64.9154 20.2282 64.2275C16.5274 62.9205 12.895 61.6135 9.12565 60.5129C8.16617 60.2377 7.20669 59.9626 6.24721 59.7562C5.76747 59.6186 5.28772 59.5498 4.73945 59.4122C4.19117 59.3435 3.71143 59.2059 3.09462 59.1371C2.95755 59.1371 2.75195 59.1371 2.54635 59.1371C2.40928 59.1371 2.27221 59.1371 2.13514 59.1371C2.06661 59.1371 1.92954 59.1371 1.861 59.2059C1.72393 59.2747 1.6554 59.2747 1.38126 59.3435C1.17566 59.4122 0.90152 59.5498 0.558848 59.9626C0.216176 60.3065 -0.0579622 61.132 0.0105722 61.6135C0.0105722 62.095 0.353244 62.7141 0.28471 62.5765C0.28471 62.5765 0.490313 62.9205 0.421779 62.8517C0.490313 62.9893 0.627382 63.1269 0.695917 63.2644C1.10712 63.746 1.4498 64.1587 1.861 64.5714C2.61488 65.3281 3.43729 66.016 4.25971 66.6351C7.54936 69.1115 11.0446 71.0376 14.7455 72.6197C16.5959 73.3764 18.5149 74.0643 20.4338 74.6146C21.3933 74.8898 22.4213 75.1649 23.3808 75.3025C24.4088 75.5089 25.5054 75.6465 26.5334 75.6465C26.6019 75.6465 26.6705 75.6465 26.739 75.6465C27.0817 79.2235 27.5614 82.8005 28.1097 86.3776C28.3838 88.3037 28.7265 90.2986 29.1377 92.2246C29.3433 93.1877 29.5489 94.1507 29.8231 95.1826C30.0972 96.2144 30.3713 97.1775 30.8511 98.3469C30.9881 98.622 31.1252 98.966 31.4679 99.4475C31.6735 99.7227 32.1532 100.411 33.2498 100.686C33.7295 100.823 34.2778 100.754 34.6205 100.686C34.9631 100.548 35.2373 100.411 35.4429 100.273C35.8541 99.9978 36.0597 99.7914 36.1968 99.5851C36.4024 99.3787 36.4709 99.2411 36.608 99.0348C36.8136 98.6908 37.0192 98.4157 37.1562 98.1405C37.7045 97.0399 38.1157 96.0768 38.4584 95.1138C39.1437 93.1877 39.692 91.2616 40.1718 89.2667C40.6515 87.3406 41.0627 85.3457 41.3368 83.3508C41.4739 82.319 41.5424 81.2872 41.611 80.2553C41.6795 79.1547 41.6795 78.1229 41.4739 76.8159L41.4054 76.5407L41.3368 76.2656V76.1968C41.1998 75.784 41.2683 75.9904 41.2683 75.8528C41.1998 75.7153 41.1998 75.6465 41.1312 75.5089C40.9256 75.0962 40.72 74.7522 40.5144 74.4771C40.1032 73.8579 39.6235 73.4452 39.2123 73.0325C39.1437 72.9637 39.1437 72.9637 39.0752 72.8949C42.639 71.244 45.9286 69.1115 48.8756 66.6351C50.4519 65.3281 51.8911 63.9523 53.2618 62.5078C54.1528 61.5447 54.9752 60.5817 55.7976 59.6186C55.6605 61.4071 55.5235 63.1956 55.3864 64.9842C55.2493 66.9103 55.1808 68.9051 55.1808 70.9688C55.1808 71.5191 55.1808 72.0006 55.2493 72.6885C55.2493 72.8949 55.3179 73.1013 55.3864 73.3764C55.4549 73.514 55.4549 73.6516 55.592 73.9955C55.6605 74.1331 55.7291 74.3395 55.9347 74.5458C55.7976 74.6146 57.1683 75.5089 56.8942 75.3025C57.648 75.5777 57.511 75.5089 57.9222 75.5777C58.1963 75.5777 58.539 75.5777 58.8131 75.5089C59.3614 75.3713 59.8411 75.0274 60.0467 74.821C60.5265 74.3395 60.6636 73.9955 60.8006 73.7204C61.0062 73.2388 61.0748 72.8949 61.1433 72.551C61.2118 72.207 61.2804 71.9319 61.2804 71.6567C61.3489 71.1064 61.4174 70.5561 61.486 70.0746C61.6916 68.0797 61.7601 66.1536 61.9657 64.3651C62.0342 63.4708 62.1713 62.5765 62.3769 61.9574C62.6511 61.132 62.9252 60.3065 63.2679 59.481C63.6105 58.7244 64.0217 57.9677 64.4329 57.3486C64.8442 56.7295 65.3924 56.1792 65.7351 55.9728C65.8036 55.9728 65.8036 55.904 65.8722 55.904C65.8722 55.9728 65.9407 56.0416 65.9407 56.1104C66.0778 56.4543 66.2148 56.9358 66.3519 57.4174C66.9002 59.2747 67.517 61.4759 68.9562 63.402C69.6416 64.3651 70.601 65.1905 71.6291 65.8096C72.6571 66.4287 73.7536 66.8415 74.8502 67.0478C75.6726 67.2542 76.495 67.323 77.3174 67.323C77.386 67.4606 77.386 67.6669 77.4545 67.8045C77.7286 68.63 78.0713 69.5242 78.6196 70.2809C79.1679 71.0376 79.8532 71.7943 80.6756 72.3446C82.2519 73.4452 84.0338 73.7892 85.6101 73.7892C87.1864 73.7892 88.6941 73.5828 90.0648 73.1701L90.6131 73.0325L91.0928 72.8949C91.4355 72.7573 91.7782 72.6197 92.1209 72.551C92.8062 72.2758 93.423 72.0006 94.0398 71.6567C95.2734 71.0376 96.4385 70.2809 97.5351 69.5242C98.7687 68.63 100.002 67.6669 101.099 66.6351C101.03 68.6988 100.962 70.7624 100.893 72.8261L100.962 73.3076C101.03 74.3395 101.784 75.3025 102.812 75.6465C104.251 76.128 105.759 75.3025 106.239 73.858C107.61 69.5242 109.392 65.3281 111.379 61.2695C111.859 60.2377 112.407 59.2747 112.955 58.3116C113.161 57.8989 113.435 57.5549 113.641 57.211C113.709 57.6925 113.778 58.3116 113.846 58.8619C113.983 60.9944 114.052 63.3332 114.326 65.8096C114.463 67.0478 114.669 68.286 115.217 69.7306L115.285 69.937L115.354 70.0058L115.423 70.2121C115.56 70.4185 115.628 70.6249 115.765 70.7624C115.971 71.1064 116.245 71.4503 116.519 71.7943C117.136 72.4822 117.958 73.0325 118.781 73.3076C119.603 73.5828 120.494 73.6516 121.248 73.6516C122.002 73.5828 122.756 73.4452 123.373 73.3076C124.675 72.8949 125.84 72.3446 126.936 71.7255C128.239 70.9688 129.472 70.0746 130.569 69.1115C130.843 69.593 131.185 70.0058 131.528 70.4185C133.104 72.207 135.229 73.2389 137.354 73.5828C139.41 73.9267 141.329 73.7204 143.179 73.3076C145.852 72.6885 148.251 71.6567 150.512 70.3497C150.992 70.9688 151.54 71.5191 152.157 72.0006C153.528 73.0325 155.104 73.514 156.543 73.6516C157.982 73.7892 159.422 73.6516 160.724 73.4452C161.067 73.3764 161.409 73.3076 161.683 73.2389L162.163 73.1013L162.574 72.9637C163.26 72.7573 163.876 72.4822 164.425 72.2758C166.823 71.244 168.948 69.937 170.935 68.4236C171.963 67.6669 172.923 66.9103 173.882 66.016C174.362 65.6033 174.773 65.1217 175.253 64.6402C175.459 64.4338 175.664 64.1587 175.87 63.8835L176.281 63.402C177.241 65.6033 178.269 67.8045 179.639 69.937C180.393 71.0376 181.216 72.0694 182.312 73.1013C182.86 73.5828 183.546 74.0643 184.3 74.4083C184.711 74.6146 185.122 74.7522 185.602 74.821C185.739 74.821 185.807 74.8898 185.945 74.8898H186.15H186.287H186.493H186.767C188.275 74.8898 189.645 74.5458 190.879 74.1331C192.181 73.6516 193.346 73.1013 194.443 72.4134C196.636 71.0376 198.555 69.4555 200.268 67.7357C202.05 66.016 203.626 64.1587 205.134 62.1638C205.682 61.5447 205.614 60.788 205.134 60.3065ZM31.6049 39.8761C31.8106 36.024 32.0847 32.2405 32.4959 28.4571C32.9071 24.6737 33.4554 20.9591 34.2778 17.3133C34.689 15.5248 35.1687 13.7363 35.7855 12.1541C36.4024 10.5032 37.1562 8.98983 38.1157 7.88921C38.3213 7.61405 38.5955 7.40769 38.8011 7.20132C38.9381 7.13253 39.0067 6.99495 39.1437 6.92616L39.2123 6.85737L39.3493 6.78858C39.4864 6.7198 39.4864 6.7198 39.5549 6.65101C40.1032 6.30706 40.72 6.0319 41.3368 5.82554C41.9536 5.61917 42.5705 5.48159 43.2558 5.55038C43.9411 5.61917 44.6265 5.75675 45.2433 6.16948C46.5455 6.92616 47.642 8.09558 48.533 9.54015C49.4239 10.9847 50.0407 12.5669 50.3834 14.2866C51.1373 17.7261 51.0002 21.3719 50.1778 24.8801C49.3554 28.3884 47.9161 31.759 45.9972 34.9233C44.1468 38.0876 41.8166 40.9768 39.2123 43.6595C36.745 46.2735 34.0037 48.6124 31.1252 50.8136C31.3308 47.0302 31.3993 43.4532 31.6049 39.8761ZM24.2718 71.244C23.3808 71.0376 22.4899 70.8312 21.5989 70.6249C19.817 70.1433 18.1037 69.4555 16.3903 68.7676C13.786 67.6669 11.3188 66.2911 8.92005 64.7778C10.4278 65.1905 11.9356 65.6033 13.5119 66.016C15.3623 66.5663 17.1442 67.1166 18.9946 67.7357C21.4619 68.63 23.9976 69.593 26.3278 70.6937C26.3278 70.9688 26.3963 71.3128 26.3963 71.5879C25.711 71.4503 24.9571 71.3815 24.2718 71.244ZM36.8821 80.049C36.8136 80.9432 36.6765 81.8375 36.5394 82.7317C36.2653 84.5203 35.8541 86.3776 35.4429 88.1661C35.1002 89.4731 34.7575 90.7113 34.4149 91.9495C34.3463 91.7431 34.3463 91.468 34.2778 91.2616C33.9351 89.4043 33.5924 87.547 33.3183 85.6209C32.8386 82.1814 32.4274 78.742 32.0847 75.3025C32.7015 75.1649 33.3868 75.0274 34.0037 74.8898C34.0722 74.9586 34.1407 74.9586 34.2093 75.0274C34.9631 75.5089 35.5799 76.0592 36.1282 76.6095C36.4024 76.8847 36.608 77.1598 36.745 77.2974C36.8136 77.3662 36.8136 77.435 36.8136 77.435V77.6414C36.9506 78.3292 36.9506 79.2235 36.8821 80.049ZM56.3459 71.6567C56.3459 71.7255 56.3459 71.7255 56.3459 71.6567ZM65.8036 55.5601C65.8036 55.4913 65.7351 55.4913 65.8036 55.5601ZM82.6631 63.3332C82.8002 61.132 83.2114 58.8619 84.1023 57.6237C84.3079 57.2798 84.5821 57.0046 84.8562 56.7983C85.1303 56.5919 85.4045 56.4543 85.8842 56.2479H85.9528C86.0213 56.2479 86.0898 56.2479 86.1584 56.3167C86.4325 56.3855 86.7066 56.5919 86.9122 56.7295C87.1178 56.867 87.1864 57.0734 87.2549 57.3486C87.3235 57.6237 87.392 57.9677 87.3234 58.3116C87.2549 58.7243 87.1864 59.2059 86.9808 59.6874C86.9122 59.825 86.7066 60.3065 86.6381 60.4441C86.5696 60.6504 86.4325 60.9256 86.2954 61.132C85.7472 62.0262 85.1303 62.9205 84.3765 63.6084C83.9653 63.9523 83.5541 64.2963 83.0743 64.5714C82.9372 64.6402 82.8002 64.709 82.6631 64.8466C82.6631 64.3651 82.6631 63.8835 82.6631 63.3332ZM104.046 54.5282C104.046 54.4594 103.977 54.4594 104.046 54.5282ZM156.749 55.7664C156.817 55.7664 156.817 55.7664 156.749 55.7664C156.68 55.7664 156.68 55.7664 156.68 55.7664H156.749ZM153.528 63.8147C153.596 62.7141 153.733 61.6823 153.939 60.6504C154.35 58.6556 155.104 56.9358 156.269 56.1792C156.406 56.1104 156.543 55.9728 156.749 55.904C156.817 55.904 156.886 55.8352 156.954 55.8352C157.023 55.8352 157.092 55.904 157.092 55.904C157.64 56.2479 158.051 56.867 158.188 57.4861C158.394 58.174 158.257 59.0683 157.982 59.9626C157.708 60.8568 157.229 61.8886 156.68 62.7141C156.132 63.5396 155.447 64.3651 154.624 64.9842C154.282 65.2593 153.939 65.4657 153.528 65.7408C153.459 65.1905 153.459 64.5026 153.528 63.8147ZM178.2 54.941C176.967 50.4697 176.007 45.8608 175.459 41.2519C175.322 40.0825 175.185 38.9819 175.116 37.8125C175.048 37.2622 175.048 36.7118 175.048 36.0927L174.979 34.3042C174.91 31.9654 174.979 29.6266 175.048 27.2877C175.116 24.9489 175.322 22.6101 175.596 20.34C175.87 18.07 176.281 15.8 176.829 13.6675C177.446 11.535 178.132 9.47136 179.228 7.88921C179.776 7.13253 180.393 6.44464 180.942 6.0319C181.558 5.61917 182.107 5.48159 182.586 5.55038C182.998 5.61917 183.477 5.82554 184.026 6.51343C184.505 7.13253 184.985 8.02679 185.328 8.98984C186.082 10.9159 186.493 13.186 186.698 15.3872C187.178 19.9273 187.11 24.605 186.63 29.2138C186.424 31.5527 186.082 33.8227 185.602 36.0927C185.191 38.3628 184.642 40.6328 183.957 42.8341C182.655 47.2366 180.736 51.5015 178.269 55.4225C178.269 55.4225 178.269 55.4913 178.2 55.4913C178.269 55.4225 178.2 55.2161 178.2 54.941Z" fill="black"/>
</svg>
