<?xml version="1.0" encoding="utf-8"?>
<!-- Generator: Adobe Illustrator 19.2.1, SVG Export Plug-In . SVG Version: 6.00 Build 0)  -->
<svg version="1.1" id="レイヤー_1" xmlns="http://www.w3.org/2000/svg" xmlns:xlink="http://www.w3.org/1999/xlink" x="0px"
	 y="0px" width="230.542px" height="58.283px" viewBox="0 0 230.542 58.283" enable-background="new 0 0 230.542 58.283"
	 xml:space="preserve">
<g>
	<g>
		<g>
			<path fill="#505096" d="M22.042,32.771v3.457c-1.244,1.263-2.463,2.375-3.659,3.336c-1.195,0.962-2.308,1.734-3.338,2.315
				c-2.061,1.122-4.17,1.683-6.327,1.683c-2.508,0-4.588-0.843-6.239-2.528C0.826,39.349,0,37.192,0,34.564
				c0-2.066,0.408-4.142,1.225-6.229c0.816-2.086,1.91-3.958,3.28-5.612c1.37-1.655,2.935-2.974,4.694-3.957
				c1.759-0.983,3.474-1.475,5.146-1.475c1.75,0,3.164,0.486,4.242,1.458c1.079,0.973,1.618,2.27,1.618,3.893
				c0,0.221-0.014,0.436-0.043,0.646s-0.132,0.446-0.307,0.707s-0.544,0.511-1.107,0.751l-3.383,1.653
				c-0.369,0.161-0.67,0.261-0.903,0.301c-0.272,0-0.408-0.2-0.408-0.601l0.175-1.593l0.175-1.623c0-0.842-0.175-1.543-0.524-2.104
				c-0.351-0.561-0.836-0.842-1.458-0.842c-0.934,0-1.837,0.497-2.712,1.49c-0.875,0.994-1.584,2.313-2.128,3.959
				c-0.545,1.646-0.816,3.382-0.816,5.208c0,2.348,0.554,4.245,1.661,5.69c1.108,1.445,2.585,2.167,4.433,2.167
				c0.972,0,1.909-0.181,2.813-0.541c0.903-0.361,1.86-0.952,2.872-1.773C19.554,35.316,20.721,34.194,22.042,32.771z"/>
			<path fill="#505096" d="M53.182,32.771v3.457c-2.935,2.846-5.087,4.779-6.458,5.801c-1.37,1.022-2.726,1.533-4.067,1.533
				c-2.896,0-4.344-2.795-4.344-8.386c-2.003,2.966-3.83,5.105-5.481,6.417c-1.652,1.312-3.314,1.969-4.986,1.969
				c-1.107,0-2.139-0.376-3.091-1.126c-0.952-0.75-1.7-1.796-2.244-3.138c-0.545-1.341-0.816-2.772-0.816-4.293
				c0-2.502,0.515-4.824,1.545-6.966s2.327-4.008,3.893-5.599c1.564-1.591,3.236-2.848,5.015-3.768
				c1.778-0.921,3.367-1.381,4.768-1.381c2.409,0,4.11,1.132,5.102,3.396l5.948-3.396h1.633l-2.565,8.82l-1.342,5.117
				c-0.194,0.843-0.35,1.621-0.466,2.333c-0.117,0.712-0.175,1.27-0.175,1.67c0,0.823,0.164,1.46,0.495,1.912
				c0.33,0.452,0.758,0.677,1.283,0.677c0.622,0,1.341-0.331,2.157-0.992C49.8,36.167,51.199,34.815,53.182,32.771z M37.233,19.756
				c-1.303,0-2.585,0.815-3.849,2.446c-1.264,1.631-2.294,3.616-3.091,5.957c-0.797,2.34-1.195,4.371-1.195,6.091
				c0,1.04,0.253,1.911,0.758,2.611c0.544,0.68,1.205,1.02,1.983,1.02c1.341,0,2.628-0.815,3.863-2.445
				c1.233-1.631,2.244-3.626,3.032-5.987c0.787-2.361,1.181-4.401,1.181-6.122c0-1.1-0.233-1.97-0.7-2.61
				C38.75,20.076,38.089,19.756,37.233,19.756z"/>
			<path fill="#505096" d="M52.512,33.521l5.526-5.923l1.615-7.813c0.194-0.883,0.394-1.691,0.598-2.424
				c0.204-0.732,0.496-1.702,0.875-2.906c0.379-1.204,0.733-2.289,1.063-3.252c0.331-0.964,0.652-1.827,0.963-2.59
				c0.661-1.686,1.225-3.026,1.691-4.02s0.802-1.651,1.006-1.972s1.541-0.843,4.01-1.566c1.225-0.341,2.162-0.597,2.813-0.768
				S73.747,0.02,73.941,0c0.739,0,1.342,0.502,1.809,1.505c0.466,1.003,0.699,2.308,0.699,3.914c0,3.292-0.846,6.222-2.536,8.791
				c-1.691,2.569-4.286,5.56-7.785,8.972l-2.449,12.534c0.933,2.104,2.361,3.156,4.286,3.156c1.38,0,2.789-0.491,4.228-1.473
				c1.438-0.981,2.983-2.525,4.636-4.629v3.457c-1.905,2.205-3.868,3.978-5.89,5.32s-3.829,2.014-5.423,2.014
				c-0.7,0-1.711-0.291-3.032-0.872L61.9,46.001l-0.438,2.8l-0.525,3.492l-0.611,4.696c-1.633,0.24-4.063,0.672-7.29,1.294
				c0.642-5.536,1.721-12.667,3.236-21.392l-1.137-2.888l-1.953,2.224h-0.671V33.521z M67.031,19.094
				c2.177-1.943,3.937-4.113,5.277-6.507c1.342-2.395,2.013-4.594,2.013-6.598c0-0.801-0.156-1.482-0.467-2.044
				c-0.312-0.561-0.681-0.841-1.108-0.841c-0.583,0-1.166,0.521-1.749,1.563c-0.214,0.421-0.457,0.982-0.729,1.683
				c-0.272,0.702-0.545,1.473-0.816,2.314c-0.486,1.664-0.924,3.387-1.312,5.17c-0.292,1.502-0.467,2.385-0.524,2.645
				C67.479,17.141,67.284,18.012,67.031,19.094z"/>
			<path fill="#505096" d="M98.608,32.771v3.457c-1.011,1.002-1.905,1.849-2.682,2.54c-0.778,0.691-1.546,1.328-2.304,1.909
				c-1.322,0.982-2.658,1.708-4.009,2.179c-1.352,0.471-2.736,0.707-4.155,0.707c-2.644,0-4.777-0.876-6.399-2.63
				c-1.623-1.753-2.435-4.042-2.435-6.868c0-2.063,0.383-4.118,1.151-6.162c0.768-2.044,1.793-3.837,3.076-5.38
				c1.283-1.543,2.77-2.785,4.461-3.727s3.392-1.413,5.103-1.413c1.788,0,3.231,0.476,4.329,1.428
				c1.099,0.952,1.647,2.219,1.647,3.802c0,1.724-0.67,3.256-2.012,4.599c-1.341,1.343-2.906,2.415-4.694,3.216
				c-1.69,0.742-3.731,1.503-6.122,2.285c0.388,1.904,1.112,3.356,2.172,4.358c1.059,1.002,2.366,1.503,3.921,1.503
				c1.05,0,2.017-0.22,2.901-0.661s1.706-1.002,2.464-1.684c0.33-0.28,0.807-0.716,1.429-1.307
				C97.073,34.329,97.792,33.613,98.608,32.771z M83.331,30.667c2.43-0.722,4.28-1.753,5.554-3.096
				c1.273-1.342,1.91-2.976,1.91-4.899c0-0.921-0.186-1.633-0.554-2.134c-0.37-0.5-0.865-0.751-1.487-0.751
				c-0.758,0-1.556,0.421-2.391,1.263c-0.836,0.841-1.551,2.089-2.144,3.742S83.331,28.403,83.331,30.667z"/>
			<path fill="#505096" d="M144.676,32.771v3.457c-2.935,2.846-5.087,4.779-6.458,5.801c-1.37,1.022-2.726,1.533-4.067,1.533
				c-2.896,0-4.344-2.795-4.344-8.386c-2.003,2.966-3.83,5.105-5.481,6.417c-1.652,1.312-3.314,1.969-4.986,1.969
				c-1.107,0-2.139-0.376-3.091-1.126c-0.952-0.75-1.7-1.796-2.244-3.138c-0.545-1.341-0.816-2.772-0.816-4.293
				c0-2.502,0.515-4.824,1.545-6.966s2.327-4.008,3.893-5.599c1.564-1.591,3.236-2.848,5.015-3.768
				c1.778-0.921,3.367-1.381,4.768-1.381c2.409,0,4.11,1.132,5.102,3.396l5.948-3.396h1.633l-2.565,8.82l-1.342,5.117
				c-0.194,0.843-0.35,1.621-0.466,2.333c-0.117,0.712-0.175,1.27-0.175,1.67c0,0.823,0.164,1.46,0.495,1.912
				c0.33,0.452,0.758,0.677,1.283,0.677c0.622,0,1.341-0.331,2.157-0.992C141.294,36.167,142.693,34.815,144.676,32.771z
				 M128.728,19.756c-1.303,0-2.585,0.815-3.849,2.446c-1.264,1.631-2.294,3.616-3.091,5.957c-0.797,2.34-1.195,4.371-1.195,6.091
				c0,1.04,0.253,1.911,0.758,2.611c0.544,0.68,1.205,1.02,1.983,1.02c1.341,0,2.628-0.815,3.863-2.445
				c1.233-1.631,2.244-3.626,3.032-5.987c0.787-2.361,1.181-4.401,1.181-6.122c0-1.1-0.233-1.97-0.7-2.61
				C130.244,20.076,129.583,19.756,128.728,19.756z"/>
			<path fill="#505096" d="M144.006,36.228v-2.705c1.885-1.964,3.878-4.348,5.978-7.154l2.216-3.096l1.924-2.976l1.108-1.924
				c0.271-0.661,0.534-0.992,0.787-0.992l0.875,0.12c0.913,0.221,1.865,0.391,2.856,0.511c0.992,0.121,1.973,0.181,2.945,0.181
				c1.847,0,3.955-0.21,6.327-0.631c0.642-0.12,1.098-0.18,1.37-0.18c0.35,0,0.534,0.1,0.554,0.3c0,0.321-0.397,1.103-1.194,2.345
				l-2.272,3.036l-4.109,5.174l-4.201,5.198l-2.334,2.915l1.925-0.121c0.544,0,1.87,0.226,3.979,0.676
				c2.108,0.451,3.328,0.677,3.659,0.677c0.835,0,1.55-0.135,2.143-0.406c0.593-0.271,1.239-0.751,1.939-1.442
				c0.699-0.691,1.633-1.678,2.799-2.961v3.457l-2.916,3.156c-0.914,0.962-1.734,1.739-2.464,2.33
				c-0.729,0.591-1.482,1.067-2.26,1.428c-0.389,0.16-0.758,0.28-1.107,0.361c-0.35,0.08-0.739,0.12-1.166,0.12
				c-0.681,0-1.983-0.311-3.907-0.932c-2.08-0.701-3.626-1.052-4.636-1.052c-1.264,0-2.323,0.471-3.179,1.413
				c-0.291,0.341-0.524,0.531-0.699,0.571c-1.322,0-2.002-0.09-2.041-0.271c0-0.301,0.583-1.233,1.748-2.797l4.224-5.443
				l5.495-6.812l3.578-4.515c-1.05,0.24-2.265,0.36-3.645,0.36c-1.69,0-3.499-0.3-5.423-0.901c-1.245,1.863-2.47,3.587-3.674,5.17
				c-0.331,0.441-0.739,0.972-1.225,1.593c-0.856,1.082-1.521,1.914-1.998,2.495c-0.477,0.582-0.991,1.183-1.545,1.804
				s-1.143,1.262-1.764,1.923H144.006z"/>
			<path fill="#505096" d="M187.595,32.771v3.457c-4.548,4.93-7.95,7.395-10.205,7.395c-1.244,0-2.293-0.671-3.148-2.014
				c-0.855-1.343-1.283-2.976-1.283-4.9c0-2.725,0.403-5.541,1.21-8.446c0.807-2.905,1.803-6.001,2.989-9.288l7.405-1.593h0.35
				l-2.915,9.408c-0.661,2.205-1.128,3.928-1.399,5.17c-0.272,1.243-0.408,2.295-0.408,3.156c0,0.681,0.141,1.222,0.423,1.623
				c0.281,0.401,0.636,0.601,1.063,0.601c0.836,0,1.628-0.315,2.377-0.947C184.801,35.762,185.981,34.555,187.595,32.771z
				 M180.189,5.32l2.099,1.178c0.525,0.202,1.06,0.302,1.604,0.302c1.03,0,2.07-0.391,3.12-1.172c0,2.365-0.433,4.158-1.298,5.38
				c-0.864,1.223-2.152,1.833-3.863,1.833c-1.672,0-3.101-0.521-4.285-1.563C178.653,9.534,179.528,7.547,180.189,5.32z"/>
			<path fill="#505096" d="M191.507,18.134l2.726-9.382l7.824-1.658l-2.974,10.468l4.052-0.241l-0.962,4.629l-4.52,0.36
				l-1.021,3.367c-0.583,1.964-1.05,3.692-1.399,5.185c-0.35,1.493-0.524,2.75-0.524,3.772c0,0.901,0.233,1.673,0.699,2.314
				c0.467,0.582,1.05,0.872,1.75,0.872c1.127,0,2.172-0.371,3.134-1.112c0.963-0.741,2.328-2.054,4.097-3.938v3.457
				c-2.527,2.605-4.685,4.479-6.473,5.621c-1.789,1.142-3.45,1.713-4.985,1.713c-1.673,0-3.028-0.731-4.067-2.194
				c-1.04-1.462-1.561-3.367-1.561-5.711c0-1.363,0.136-2.73,0.408-4.103s0.661-2.911,1.167-4.614l1.166-4.088l-2.245,0.121
				l0.935-4.718L191.507,18.134z"/>
			<path fill="#505096" d="M230.542,32.771v3.457c-0.855,0.802-1.706,1.413-2.552,1.833c-0.845,0.421-1.695,0.631-2.551,0.631
				c-0.408,0-0.754-0.025-1.035-0.075c-0.282-0.05-0.627-0.155-1.035-0.315c-0.603-0.26-1.303-0.691-2.099-1.292
				c-1.342,2.124-2.839,3.757-4.49,4.899c-0.798,0.541-1.624,0.952-2.479,1.232c-0.855,0.28-1.74,0.421-2.653,0.421
				c-1.458,0-2.77-0.391-3.937-1.174c-1.166-0.782-2.065-1.906-2.696-3.37c-0.632-1.464-0.948-3.139-0.948-5.025
				c0-1.524,0.175-2.969,0.525-4.333c0.35-1.364,0.894-2.698,1.633-4.002c1.438-2.528,3.387-4.554,5.846-6.079
				s5.126-2.287,8.003-2.287c1.633,0,2.833,0.186,3.602,0.557c0.768,0.371,1.243,0.803,1.429,1.294
				c0.185,0.492,0.276,1.129,0.276,1.912c0,3.733-0.991,8.339-2.974,13.818c0.485,0.442,0.986,0.788,1.502,1.039
				c0.515,0.251,1.054,0.376,1.618,0.376c0.68,0,1.433-0.295,2.259-0.887C228.612,34.81,229.531,33.934,230.542,32.771z
				 M219.608,35.35c-1.827-2.368-2.741-4.917-2.741-7.646c0-1.706,0.316-3.191,0.948-4.455c0.631-1.264,1.666-2.548,3.104-3.853
				c-0.291-0.12-0.71-0.181-1.254-0.181c-1.885,0-3.431,0.728-4.636,2.182c-1.205,1.455-2.08,3.231-2.624,5.329
				c-0.544,2.098-0.816,4.149-0.816,6.156c0,2.067,0.321,3.652,0.962,4.756c0.642,1.104,1.497,1.655,2.566,1.655
				C216.459,39.293,217.956,37.979,219.608,35.35z"/>
		</g>
	</g>
	<g>
		<g>
			<path fill="#505096" d="M100.06,4.641c0.056,2.96-2.326,4.537-4.13,6.349c-3.431,3.447-8.682,3.896-8.682,3.896
				c1.863-1.284,5.508-7.117,6.316-10.198C95.361,5.138,97.47,5.178,100.06,4.641z"/>
		</g>
	</g>
</g>
</svg>
